# xmcd
#
# Track frame offsets:
#	150
#	11500
#	29115
#	43450
#	56587
#	70940
#	87062
#	101417
#	122125
#	135387
#	151750
#	165112
#	179720
#	194640
#	206885
#	219775
#	236667
#	249982
#
# Disc length: 3512 seconds
#
# Revision: 2
# Processed by: cddbd v1.5.1PL0 Copyright (c) Steve Scherf et al.
# Submitted via: MusicWizard 7.0.2
#
DISCID=fa0db612
DTITLE=Various Artist - I Love Country - Ballads
DYEAR=1989
DGENRE=Country
TTITLE0=Gene Watson - Getting Used To Being Loved Again
TTITLE1=The O'kanes - In My Heart
TTITLE2=Exile - My Heart's In Good Hands
TTITLE3=T. G. Sheppard - A Great Work Of Art
TTITLE4=Charlie Mcclain - Radio Heart
TTITLE5=Willie Nelson - Slow Movin' Outlaw
TTITLE6=Sweethearts Of The Rodeo - So Sad
TTITLE7=Rosanne Cash - I Don't Have To Crawl
TTITLE8=George Jones - The Window Up Above
TTITLE9=Marty Robbins - Holding On To You
TTITLE10=Tammy Wynette - D-I-V-O-R-C-E
TTITLE11=David Allan Coe - I've Already Cheated On You
TTITLE12=Johnny Cash - Casey's Last Ride
TTITLE13=Charlie Rich - The Most Beautiful Girl
TTITLE14=Janie Fricke - Are You Satisfied
TTITLE15=Lacy J Dalton - Over You
TTITLE16=Moe Bandy - That Horse That You Can't Ride
TTITLE17=Ricky Skaggs - Crying My Heart Out Over You
EXTD=(c)1989 CBS France\nupc 5099746504724
EXTT0=
EXTT1=
EXTT2=
EXTT3=
EXTT4=
EXTT5=
EXTT6=
EXTT7=
EXTT8=
EXTT9=
EXTT10=
EXTT11=
EXTT12=
EXTT13=
EXTT14=
EXTT15=
EXTT16=
EXTT17=
PLAYORDER=
